<svg width="355.3800048828125px" height="122.63999023437499px" xmlns="http://www.w3.org/2000/svg" viewBox="72.30999755859375 13.680004882812504 355.3800048828125 122.63999023437499" style="background: none;" preserveAspectRatio="xMidYMid"><defs><linearGradient id="editing-outline-gradient" x1="-0.41354545764260087" x2="1.4135454576426008" y1="0.09326335692419985" y2="0.9067366430758002"><stop offset="0" stop-color="#ee4208"></stop><stop offset="1" stop-color="#4139ff"></stop></linearGradient><filter id="editing-outline" x="-100%" y="-100%" width="300%" height="300%"><feMorphology in="SourceGraphic" operator="dilate" radius="1" result="outline"></feMorphology><feComposite operator="out" in="outline" in2="SourceAlpha"></feComposite></filter></defs><g filter="url(#editing-outline)"><g transform="translate(126.73587274551392, 97.36999893188477)"><path d="M2.69-39.68L2.69-39.68L2.69-39.68Q3.58-41.47 5.54-42.46L5.54-42.46L5.54-42.46Q7.49-43.46 10.18-43.46L10.18-43.46L10.18-43.46Q14.40-43.46 16.93-40.42L16.93-40.42L16.93-40.42Q19.46-37.38 19.46-30.72L19.46-30.72L19.46-7.87L34.11-42.18L41.66-42.18L43.39-9.79L43.20-7.94L58.43-42.18L67.20-42.18L46.72 0L33.09 0L31.81-19.46L23.36 0L7.94 0L6.02-30.72L6.02-30.72Q5.82-34.18 4.90-36.45L4.90-36.45L4.90-36.45Q3.97-38.72 2.69-39.68ZM89.28-10.82L89.28-10.82L89.28-10.82Q90.88-9.73 90.88-7.33L90.88-7.33L90.88-7.33Q90.88-4.93 89.66-3.39L89.66-3.39L89.66-3.39Q88.45-1.86 86.46-0.83L86.46-0.83L86.46-0.83Q82.37 1.28 77.95 1.28L77.95 1.28L77.95 1.28Q73.54 1.28 70.94 0.32L70.94 0.32L70.94 0.32Q68.35-0.64 66.62-2.43L66.62-2.43L66.62-2.43Q63.23-5.82 63.23-12.03L63.23-12.03L63.23-12.03Q63.23-21.70 68.48-27.58L68.48-27.58L68.48-27.58Q74.11-33.92 83.90-33.92L83.90-33.92L83.90-33.92Q89.98-33.92 92.99-31.36L92.99-31.36L92.99-31.36Q95.23-29.44 95.23-26.30L95.23-26.30L95.23-26.30Q95.23-15.04 75.78-15.04L75.78-15.04L75.78-15.04Q75.52-13.38 75.52-11.97L75.52-11.97L75.52-11.97Q75.52-9.02 76.83-7.90L76.83-7.90L76.83-7.90Q78.14-6.78 80.58-6.78L80.58-6.78L80.58-6.78Q83.01-6.78 85.60-7.90L85.60-7.90L85.60-7.90Q88.19-9.02 89.28-10.82ZM76.22-17.79L76.22-17.79L76.22-17.79Q80.77-17.79 83.39-20.61L83.39-20.61L83.39-20.61Q86.02-23.30 86.02-27.58L86.02-27.58L86.02-27.58Q86.02-29.06 85.47-29.86L85.47-29.86L85.47-29.86Q84.93-30.66 83.84-30.66L83.84-30.66L83.84-30.66Q82.75-30.66 81.82-30.24L81.82-30.24L81.82-30.24Q80.90-29.82 79.94-28.42L79.94-28.42L79.94-28.42Q77.57-25.22 76.22-17.79ZM102.85 0L95.49 0L107.07-42.24L120.45-42.24L123.39-18.11L135.30-42.24L146.50-42.24L147.65-10.62L147.65-10.62Q147.90-4.35 150.98-2.43L150.98-2.43L150.98-2.43Q150.27-1.15 148.22 0.06L148.22 0.06L148.22 0.06Q146.18 1.28 143.46 1.28L143.46 1.28L143.46 1.28Q140.74 1.28 139.14 0.51L139.14 0.51L139.14 0.51Q137.54-0.26 136.64-1.54L136.64-1.54L136.64-1.54Q135.04-3.84 135.04-8.26L135.04-8.26L135.04-28.03L122.43 0L114.50 0L110.02-28.74L102.85 0ZM179.65-10.82L179.65-10.82L179.65-10.82Q181.25-9.73 181.25-7.33L181.25-7.33L181.25-7.33Q181.25-4.93 180.03-3.39L180.03-3.39L180.03-3.39Q178.82-1.86 176.83-0.83L176.83-0.83L176.83-0.83Q172.74 1.28 168.32 1.28L168.32 1.28L168.32 1.28Q163.90 1.28 161.31 0.32L161.31 0.32L161.31 0.32Q158.72-0.64 156.99-2.43L156.99-2.43L156.99-2.43Q153.60-5.82 153.60-12.03L153.60-12.03L153.60-12.03Q153.60-21.70 158.85-27.58L158.85-27.58L158.85-27.58Q164.48-33.92 174.27-33.92L174.27-33.92L174.27-33.92Q180.35-33.92 183.36-31.36L183.36-31.36L183.36-31.36Q185.60-29.44 185.60-26.30L185.60-26.30L185.60-26.30Q185.60-15.04 166.14-15.04L166.14-15.04L166.14-15.04Q165.89-13.38 165.89-11.97L165.89-11.97L165.89-11.97Q165.89-9.02 167.20-7.90L167.20-7.90L167.20-7.90Q168.51-6.78 170.94-6.78L170.94-6.78L170.94-6.78Q173.38-6.78 175.97-7.90L175.97-7.90L175.97-7.90Q178.56-9.02 179.65-10.82ZM166.59-17.79L166.59-17.79L166.59-17.79Q171.14-17.79 173.76-20.61L173.76-20.61L173.76-20.61Q176.38-23.30 176.38-27.58L176.38-27.58L176.38-27.58Q176.38-29.06 175.84-29.86L175.84-29.86L175.84-29.86Q175.30-30.66 174.21-30.66L174.21-30.66L174.21-30.66Q173.12-30.66 172.19-30.24L172.19-30.24L172.19-30.24Q171.26-29.82 170.30-28.42L170.30-28.42L170.30-28.42Q167.94-25.22 166.59-17.79ZM213.70-10.82L213.70-10.82L213.70-10.82Q215.30-9.73 215.30-7.33L215.30-7.33L215.30-7.33Q215.30-4.93 214.08-3.39L214.08-3.39L214.08-3.39Q212.86-1.86 210.88-0.83L210.88-0.83L210.88-0.83Q206.78 1.28 202.37 1.28L202.37 1.28L202.37 1.28Q197.95 1.28 195.36 0.32L195.36 0.32L195.36 0.32Q192.77-0.64 191.04-2.43L191.04-2.43L191.04-2.43Q187.65-5.82 187.65-12.03L187.65-12.03L187.65-12.03Q187.65-21.70 192.90-27.58L192.90-27.58L192.90-27.58Q198.53-33.92 208.32-33.92L208.32-33.92L208.32-33.92Q214.40-33.92 217.41-31.36L217.41-31.36L217.41-31.36Q219.65-29.44 219.65-26.30L219.65-26.30L219.65-26.30Q219.65-15.04 200.19-15.04L200.19-15.04L200.19-15.04Q199.94-13.38 199.94-11.97L199.94-11.97L199.94-11.97Q199.94-9.02 201.25-7.90L201.25-7.90L201.25-7.90Q202.56-6.78 204.99-6.78L204.99-6.78L204.99-6.78Q207.42-6.78 210.02-7.90L210.02-7.90L210.02-7.90Q212.61-9.02 213.70-10.82ZM200.64-17.79L200.64-17.79L200.64-17.79Q205.18-17.79 207.81-20.61L207.81-20.61L207.81-20.61Q210.43-23.30 210.43-27.58L210.43-27.58L210.43-27.58Q210.43-29.06 209.89-29.86L209.89-29.86L209.89-29.86Q209.34-30.66 208.26-30.66L208.26-30.66L208.26-30.66Q207.17-30.66 206.24-30.24L206.24-30.24L206.24-30.24Q205.31-29.82 204.35-28.42L204.35-28.42L204.35-28.42Q201.98-25.22 200.64-17.79ZM222.85-6.40L222.85-6.40L222.85-6.40Q222.85-8.13 223.74-12.48L223.74-12.48L227.14-29.76L223.36-29.76L223.62-31.68L223.62-31.68Q231.30-33.98 238.72-39.62L238.72-39.62L241.79-39.62L240.26-32.64L245.25-32.64L244.67-29.76L239.74-29.76L236.48-12.48L236.48-12.48Q235.65-8.51 235.65-7.17L235.65-7.17L235.65-7.17Q235.65-4.10 238.34-3.46L238.34-3.46L238.34-3.46Q237.70-1.28 235.39 0L235.39 0L235.39 0Q233.09 1.28 229.82 1.28L229.82 1.28L229.82 1.28Q226.56 1.28 224.70-0.77L224.70-0.77L224.70-0.77Q222.85-2.82 222.85-6.40Z" fill="url(#editing-outline-gradient)"></path></g></g><style>text {
  font-size: 64px;
  font-family: Arial Black;
  dominant-baseline: central;
  text-anchor: middle;
}</style></svg>